<svg width="1440" height="517" viewBox="0 0 1440 517" fill="none" xmlns="http://www.w3.org/2000/svg">
<rect y="1" width="1440" height="515.651" fill="#FF5A5F"/>
<line y1="-0.5" x2="14.7304" y2="-0.5" transform="matrix(0.633478 0.773761 -0.733936 0.679219 59 419.9)" stroke="white" stroke-opacity="0.2"/>
<line y1="-0.5" x2="14.7304" y2="-0.5" transform="matrix(0.633478 0.773761 -0.733936 0.679219 92 453.922)" stroke="white" stroke-opacity="0.2"/>
<line y1="-0.5" x2="699.732" y2="-0.5" transform="matrix(0.675973 -0.736926 0.694186 0.719795 456 516.651)" stroke="white" stroke-opacity="0.2"/>
<line y1="-0.5" x2="698.381" y2="-0.5" transform="matrix(0.674417 -0.738351 0.695709 0.718324 379 516.651)" stroke="white" stroke-opacity="0.2"/>
<line y1="-0.5" x2="699.056" y2="-0.5" transform="matrix(0.675196 -0.737638 0.694947 0.719061 401 516.651)" stroke="white" stroke-opacity="0.2"/>
<line y1="-0.5" x2="697.707" y2="-0.5" transform="matrix(0.673635 -0.739064 0.696471 0.717585 419 516.651)" stroke="white" stroke-opacity="0.2"/>
<line y1="-0.5" x2="699.056" y2="-0.5" transform="matrix(0.675196 -0.737638 0.694947 0.719061 437 516.651)" stroke="white" stroke-opacity="0.2"/>
<path d="M177.5 66.9182L250.679 211.247H104.321L177.5 66.9182Z" fill="white" fill-opacity="0.19"/>
<path d="M1246.61 141.147L1182.66 290.35L1094.23 166.361L1246.61 141.147Z" fill="white" fill-opacity="0.19"/>
<ellipse cx="22.5" cy="489.539" rx="9.5" ry="10.1004" fill="#D9D9D9" fill-opacity="0.26"/>
<ellipse cx="52.5" cy="463.491" rx="8.5" ry="8.50558" fill="#D9D9D9" fill-opacity="0.26"/>
<ellipse cx="112.5" cy="470.933" rx="8.5" ry="8.50558" fill="#D9D9D9" fill-opacity="0.26"/>
<ellipse cx="52.5" cy="410.331" rx="8.5" ry="8.50558" fill="#D9D9D9" fill-opacity="0.26"/>
<ellipse cx="81.5" cy="442.758" rx="11.5" ry="12.2268" fill="#D9D9D9" fill-opacity="0.26"/>
<ellipse cx="1052" cy="425.216" rx="32" ry="34.0223" fill="#D9D9D9" fill-opacity="0.26"/>
<line y1="-0.5" x2="310.968" y2="-0.5" transform="matrix(0.670487 -0.741921 0.699529 0.714604 1231.5 515.587)" stroke="white" stroke-opacity="0.2"/>
<line y1="-0.5" x2="444.583" y2="-0.5" transform="matrix(0.681538 -0.731783 0.688701 0.725046 1137 515.587)" stroke="white" stroke-opacity="0.2"/>
<line y1="-0.5" x2="409.868" y2="-0.5" transform="matrix(0.673388 -0.73929 0.696712 0.717351 1164 515.587)" stroke="white" stroke-opacity="0.2"/>
<line y1="-0.5" x2="376.914" y2="-0.5" transform="matrix(0.673653 -0.739048 0.696454 0.717601 1186.09 515.587)" stroke="white" stroke-opacity="0.2"/>
<line y1="-0.5" x2="343.96" y2="-0.5" transform="matrix(0.673968 -0.73876 0.696146 0.7179 1208.18 515.587)" stroke="white" stroke-opacity="0.2"/>
<path d="M412 269.989L417.613 287.62H435.776L421.082 298.517L426.695 316.149L412 305.252L397.305 316.149L402.918 298.517L388.224 287.62H406.387L412 269.989Z" fill="white" fill-opacity="0.2"/>
<path d="M270 273.178L275.613 290.81H293.776L279.082 301.707L284.695 319.339L270 308.442L255.305 319.339L260.918 301.707L246.224 290.81H264.387L270 273.178Z" fill="white" fill-opacity="0.2"/>
<path d="M387 379.498L392.613 397.13H410.776L396.082 408.027L401.695 425.658L387 414.761L372.305 425.658L377.918 408.027L363.224 397.13H381.387L387 379.498Z" fill="white" fill-opacity="0.2"/>
</svg>
